<svg width="29" height="43" viewBox="0 0 29 43" fill="none" xmlns="http://www.w3.org/2000/svg">
<g filter="url(#filter0_d_1155_805)">
<path d="M9.77335 23.9271C10.4702 22.8189 15.1336 19.9491 16.4266 19.9222C17.6975 19.8958 18.9696 20.9033 19.903 21.6663C22.1008 23.4628 21.4674 25.8969 20.1948 28.1548C18.9656 30.3357 15.4847 30.5623 14.1655 28.4174C12.4258 25.5888 15.2893 21.8064 18.5219 22.6689C21.8758 23.5638 22.4593 27.9203 21.2124 30.6443C20.2913 32.6564 18.461 34.6256 16.315 35.3208C14.305 35.9719 12.5422 35.3436 10.9041 34.1384C8.7426 32.548 7.01929 30.1306 6.25695 27.5421C5.00774 23.3004 6.06627 20.7103 7.49647 16.717C8.68145 13.4084 10.968 8.22317 13.352 5.65758" stroke="#3C79F5" stroke-width="10" stroke-linecap="round" shape-rendering="crispEdges"/>
</g>
<defs>
<filter id="filter0_d_1155_805" x="0.707031" y="0.657593" width="28.1094" height="41.9294" filterUnits="userSpaceOnUse" color-interpolation-filters="sRGB">
<feFlood flood-opacity="0" result="BackgroundImageFix"/>
<feColorMatrix in="SourceAlpha" type="matrix" values="0 0 0 0 0 0 0 0 0 0 0 0 0 0 0 0 0 0 127 0" result="hardAlpha"/>
<feOffset dx="2" dy="2"/>
<feComposite in2="hardAlpha" operator="out"/>
<feColorMatrix type="matrix" values="0 0 0 0 0 0 0 0 0 0.466667 0 0 0 0 0.576471 0 0 0 1 0"/>
<feBlend mode="normal" in2="BackgroundImageFix" result="effect1_dropShadow_1155_805"/>
<feBlend mode="normal" in="SourceGraphic" in2="effect1_dropShadow_1155_805" result="shape"/>
</filter>
</defs>
</svg>
