<svg width="31" height="31" viewBox="0 0 31 31" fill="none" xmlns="http://www.w3.org/2000/svg">
<path d="M19.6658 15.5001L14.0793 9.91362L12.7231 11.3022L16.921 15.5001L12.7231 19.698L14.0793 21.0865L19.6658 15.5001ZM28.4168 15.5001C28.4168 17.2654 28.0778 18.9338 27.3996 20.5053C26.7215 22.0768 25.7958 23.4492 24.6226 24.6225C23.4493 25.7957 22.0769 26.7214 20.5054 27.3996C18.9338 28.0777 17.2654 28.4167 15.5002 28.4167C13.7134 28.4167 12.0342 28.0777 10.4627 27.3996C8.89114 26.7214 7.52412 25.7957 6.36162 24.6225C5.19912 23.4492 4.27881 22.0768 3.60068 20.5053C2.92256 18.9338 2.5835 17.2654 2.5835 15.5001C2.5835 13.7133 2.92256 12.0341 3.60068 10.4626C4.27881 8.89105 5.19912 7.52404 6.36162 6.36154C7.52412 5.19904 8.89113 4.27873 10.4627 3.6006C12.0342 2.92248 13.7134 2.58342 15.5002 2.58342C17.2654 2.58342 18.9338 2.92248 20.5054 3.6006C22.0769 4.27873 23.4493 5.19904 24.6226 6.36154C25.7958 7.52404 26.7215 8.89105 27.3996 10.4626C28.0778 12.0341 28.4168 13.7133 28.4168 15.5001Z" fill="#3C79F5"/>
</svg>
