<svg width="18" height="19" viewBox="0 0 18 19" fill="none" xmlns="http://www.w3.org/2000/svg">
<path d="M9.075 13.8688C9.275 13.8688 9.44375 13.8 9.58125 13.6625C9.71875 13.525 9.7875 13.3562 9.7875 13.1562C9.7875 12.9563 9.71875 12.7875 9.58125 12.65C9.44375 12.5125 9.275 12.4438 9.075 12.4438C8.875 12.4438 8.70625 12.5125 8.56875 12.65C8.43125 12.7875 8.3625 12.9563 8.3625 13.1562C8.3625 13.3562 8.43125 13.525 8.56875 13.6625C8.70625 13.8 8.875 13.8688 9.075 13.8688ZM8.41875 11.1313H9.525C9.525 10.8063 9.56563 10.5094 9.64688 10.2406C9.72813 9.97188 9.98125 9.6625 10.4062 9.3125C10.7937 8.9875 11.0688 8.66875 11.2313 8.35625C11.3938 8.04375 11.475 7.7 11.475 7.325C11.475 6.6625 11.2594 6.13125 10.8281 5.73125C10.3969 5.33125 9.825 5.13125 9.1125 5.13125C8.5 5.13125 7.95938 5.28437 7.49063 5.59062C7.02188 5.89687 6.68125 6.31875 6.46875 6.85625L7.4625 7.23125C7.6 6.88125 7.80625 6.60938 8.08125 6.41562C8.35625 6.22187 8.68125 6.125 9.05625 6.125C9.48125 6.125 9.825 6.24062 10.0875 6.47188C10.35 6.70312 10.4813 7 10.4813 7.3625C10.4813 7.6375 10.4 7.89687 10.2375 8.14062C10.075 8.38438 9.8375 8.6375 9.525 8.9C9.15 9.225 8.87187 9.54688 8.69062 9.86563C8.50937 10.1844 8.41875 10.6062 8.41875 11.1313ZM9 17C7.975 17 7.00625 16.8031 6.09375 16.4094C5.18125 16.0156 4.38438 15.4781 3.70312 14.7969C3.02188 14.1156 2.48437 13.3188 2.09062 12.4062C1.69687 11.4937 1.5 10.525 1.5 9.5C1.5 8.4625 1.69687 7.4875 2.09062 6.575C2.48437 5.6625 3.02188 4.86875 3.70312 4.19375C4.38438 3.51875 5.18125 2.98437 6.09375 2.59062C7.00625 2.19687 7.975 2 9 2C10.0375 2 11.0125 2.19687 11.925 2.59062C12.8375 2.98437 13.6313 3.51875 14.3063 4.19375C14.9813 4.86875 15.5156 5.6625 15.9094 6.575C16.3031 7.4875 16.5 8.4625 16.5 9.5C16.5 10.525 16.3031 11.4937 15.9094 12.4062C15.5156 13.3188 14.9813 14.1156 14.3063 14.7969C13.6313 15.4781 12.8375 16.0156 11.925 16.4094C11.0125 16.8031 10.0375 17 9 17ZM9 15.875C10.775 15.875 12.2812 15.2531 13.5187 14.0094C14.7562 12.7656 15.375 11.2625 15.375 9.5C15.375 7.725 14.7562 6.21875 13.5187 4.98125C12.2812 3.74375 10.775 3.125 9 3.125C7.2375 3.125 5.73438 3.74375 4.49063 4.98125C3.24688 6.21875 2.625 7.725 2.625 9.5C2.625 11.2625 3.24688 12.7656 4.49063 14.0094C5.73438 15.2531 7.2375 15.875 9 15.875Z" fill="#FDA43B"/>
</svg>
