<svg width="14" height="14" viewBox="0 0 14 14" fill="none" xmlns="http://www.w3.org/2000/svg">
<path d="M11.0562 12.2383C9.93623 12.2383 8.82319 11.9629 7.71704 11.4121C6.61089 10.8613 5.61719 10.1453 4.73594 9.26406C3.85469 8.38281 3.13867 7.38911 2.58789 6.28296C2.03711 5.17681 1.76172 4.06377 1.76172 2.94385C1.76172 2.76943 1.82139 2.62256 1.94072 2.50322C2.06006 2.38389 2.20693 2.32422 2.38135 2.32422H4.30908C4.4376 2.32422 4.55005 2.36782 4.64644 2.45503C4.74282 2.54224 4.80479 2.65928 4.83232 2.80615L5.2041 4.54111C5.22246 4.66963 5.22017 4.78667 5.19722 4.89224C5.17427 4.9978 5.12607 5.0873 5.05264 5.16074L3.67568 6.55147C4.18975 7.40518 4.76577 8.14873 5.40376 8.78213C6.04175 9.41553 6.76465 9.95254 7.57246 10.3932L8.88057 9.04375C8.97236 8.94277 9.07793 8.87163 9.19727 8.83032C9.3166 8.78901 9.43594 8.78213 9.55527 8.80967L11.1938 9.16768C11.3315 9.19522 11.4463 9.26406 11.5381 9.37422C11.6299 9.48438 11.6758 9.61289 11.6758 9.75977V11.6187C11.6758 11.7931 11.6161 11.9399 11.4968 12.0593C11.3774 12.1786 11.2306 12.2383 11.0562 12.2383Z" fill="white"/>
</svg>
