<svg width="24" height="24" viewBox="0 0 24 24" fill="none" xmlns="http://www.w3.org/2000/svg">
<path d="M18.7327 4.41915C18.1473 4.41915 17.6449 4.20225 17.2254 3.76846C16.8059 3.33466 16.5961 2.81512 16.5961 2.20982C16.5961 1.60452 16.8059 1.08498 17.2254 0.651182C17.6449 0.217386 18.1473 0.000488281 18.7327 0.000488281C19.318 0.000488281 19.8205 0.217386 20.24 0.651182C20.6595 1.08498 20.8693 1.60452 20.8693 2.20982C20.8693 2.81512 20.6595 3.33466 20.24 3.76846C19.8205 4.20225 19.318 4.41915 18.7327 4.41915ZM18.879 24.0005C17.8283 24.0005 16.9766 23.1487 16.9766 22.0981V13.8315C16.9766 13.2262 16.8302 12.6814 16.5376 12.1972C16.0447 11.3817 15.4838 10.4297 15.7827 9.52495L16.4498 7.50616C16.6059 7.00175 16.8937 6.59822 17.3132 6.29557C17.7327 5.99292 18.2059 5.8416 18.7327 5.8416C19.2595 5.8416 19.7327 5.99292 20.1522 6.29557C20.5717 6.59822 20.8595 7.00175 21.0156 7.50616L23.4074 14.6591C23.6993 15.5321 23.0497 16.4343 22.1292 16.4343C21.3849 16.4343 20.7815 17.0377 20.7815 17.782V22.0981C20.7815 23.1487 19.9297 24.0005 18.879 24.0005ZM12.1473 11.2893C11.6595 11.2893 11.2449 11.1127 10.9034 10.7596C10.562 10.4065 10.3912 9.97779 10.3912 9.47338C10.3912 8.96896 10.562 8.54021 10.9034 8.18712C11.2449 7.83403 11.6595 7.65749 12.1473 7.65749C12.6351 7.65749 13.0498 7.83403 13.3912 8.18712C13.7327 8.54021 13.9034 8.96896 13.9034 9.47338C13.9034 9.97779 13.7327 10.4065 13.3912 10.7596C13.0498 11.1127 12.6351 11.2893 12.1473 11.2893ZM4.09854 4.41915C3.51317 4.41915 3.01073 4.20225 2.59122 3.76846C2.17171 3.33466 1.96195 2.81512 1.96195 2.20982C1.96195 1.60452 2.17171 1.08498 2.59122 0.651182C3.01073 0.217386 3.51317 0.000488281 4.09854 0.000488281C4.6839 0.000488281 5.18634 0.217386 5.60585 0.651182C6.02537 1.08498 6.23512 1.60452 6.23512 2.20982C6.23512 2.81512 6.02537 3.33466 5.60585 3.76846C5.18634 4.20225 4.6839 4.41915 4.09854 4.41915ZM4.04976 24.0005C2.94519 24.0005 2.04976 23.1051 2.04976 22.0005V16.2481C2.04976 15.6823 1.59112 15.2237 1.02537 15.2237C0.459611 15.2237 0.000976562 14.7651 0.000976562 14.1993V7.65749C0.000976562 7.15307 0.171708 6.72432 0.513172 6.37123C0.854635 6.01814 1.26927 5.8416 1.75707 5.8416H6.44C6.92781 5.8416 7.34244 6.01814 7.6839 6.37123C8.02537 6.72432 8.1961 7.15307 8.1961 7.65749V14.1993C8.1961 14.7651 7.73746 15.2237 7.17171 15.2237C6.60595 15.2237 6.14732 15.6823 6.14732 16.2481V22.0005C6.14732 23.1051 5.25189 24.0005 4.14732 24.0005H4.04976ZM12.1473 24.0005C11.2583 24.0005 10.5376 23.2798 10.5376 22.3907V19.5872C10.5376 19.1831 10.21 18.8555 9.80585 18.8555C9.40174 18.8555 9.07415 18.5279 9.07415 18.1238V13.8315C9.07415 13.4683 9.20098 13.1556 9.45463 12.8933C9.70829 12.631 10.0107 12.4999 10.362 12.4999H13.9327C14.2839 12.4999 14.5863 12.631 14.84 12.8933C15.0937 13.1556 15.2205 13.4683 15.2205 13.8315V18.1238C15.2205 18.5279 14.8929 18.8555 14.4888 18.8555C14.0847 18.8555 13.7571 19.1831 13.7571 19.5872V22.3907C13.7571 23.2798 13.0364 24.0005 12.1473 24.0005Z" fill="white"/>
</svg>
