<svg width="32" height="31" viewBox="0 0 32 31" fill="none" xmlns="http://www.w3.org/2000/svg">
<path d="M11.1882 17.0822H12.383V14.402H13.933C14.2715 14.402 14.5553 14.2875 14.7843 14.0585C15.0133 13.8295 15.1278 13.5457 15.1278 13.2072V11.6572C15.1278 11.3187 15.0133 11.0349 14.7843 10.8059C14.5553 10.5769 14.2715 10.4624 13.933 10.4624H11.1882V17.0822ZM12.383 13.2072V11.6572H13.933V13.2072H12.383ZM16.5486 17.0822H19.2611C19.584 17.0822 19.8639 16.9677 20.1007 16.7387C20.3375 16.5097 20.4559 16.2259 20.4559 15.8874V11.6572C20.4559 11.3187 20.3375 11.0349 20.1007 10.8059C19.8639 10.5769 19.584 10.4624 19.2611 10.4624H16.5486V17.0822ZM17.7434 15.8874V11.6572H19.2611V15.8874H17.7434ZM22.0382 17.0822H23.233V14.402H24.8476V13.2072H23.233V11.6572H24.8476V10.4624H22.0382V17.0822ZM8.89551 24.5416C8.37884 24.5416 7.92676 24.3478 7.53926 23.9603C7.15176 23.5728 6.95801 23.1208 6.95801 22.6041V4.52075C6.95801 4.00409 7.15176 3.552 7.53926 3.1645C7.92676 2.777 8.37884 2.58325 8.89551 2.58325H26.9788C27.4955 2.58325 27.9476 2.777 28.3351 3.1645C28.7226 3.552 28.9163 4.00409 28.9163 4.52075V22.6041C28.9163 23.1208 28.7226 23.5728 28.3351 23.9603C27.9476 24.3478 27.4955 24.5416 26.9788 24.5416H8.89551ZM8.89551 22.6041H26.9788V4.52075H8.89551V22.6041ZM5.02051 28.4166C4.50384 28.4166 4.05176 28.2228 3.66426 27.8353C3.27676 27.4478 3.08301 26.9958 3.08301 26.4791V6.45825H5.02051V26.4791H25.0413V28.4166H5.02051Z" fill="#3C79F5"/>
</svg>
