<svg width="36" height="36" viewBox="0 0 36 36" fill="none" xmlns="http://www.w3.org/2000/svg">
<path d="M8.325 26.4375C9.9 25.4375 11.4563 24.6812 12.9938 24.1687C14.5313 23.6562 16.2 23.4 18 23.4C19.8 23.4 21.475 23.6562 23.025 24.1687C24.575 24.6812 26.1375 25.4375 27.7125 26.4375C28.8125 25.0875 29.5938 23.725 30.0563 22.35C30.5188 20.975 30.75 19.525 30.75 18C30.75 14.375 29.5312 11.3438 27.0938 8.90625C24.6562 6.46875 21.625 5.25 18 5.25C14.375 5.25 11.3438 6.46875 8.90625 8.90625C6.46875 11.3438 5.25 14.375 5.25 18C5.25 19.525 5.4875 20.975 5.9625 22.35C6.4375 23.725 7.225 25.0875 8.325 26.4375ZM18 19.125C16.55 19.125 15.3313 18.6312 14.3438 17.6437C13.3562 16.6562 12.8625 15.4375 12.8625 13.9875C12.8625 12.5375 13.3562 11.3187 14.3438 10.3312C15.3313 9.34375 16.55 8.85 18 8.85C19.45 8.85 20.6687 9.34375 21.6562 10.3312C22.6438 11.3187 23.1375 12.5375 23.1375 13.9875C23.1375 15.4375 22.6438 16.6562 21.6562 17.6437C20.6687 18.6312 19.45 19.125 18 19.125ZM18 33C15.9 33 13.9375 32.6062 12.1125 31.8187C10.2875 31.0312 8.7 29.9563 7.35 28.5938C6 27.2312 4.9375 25.6375 4.1625 23.8125C3.3875 21.9875 3 20.0375 3 17.9625C3 15.9125 3.39375 13.975 4.18125 12.15C4.96875 10.325 6.04375 8.7375 7.40625 7.3875C8.76875 6.0375 10.3625 4.96875 12.1875 4.18125C14.0125 3.39375 15.9625 3 18.0375 3C20.0875 3 22.025 3.39375 23.85 4.18125C25.675 4.96875 27.2625 6.0375 28.6125 7.3875C29.9625 8.7375 31.0312 10.325 31.8187 12.15C32.6062 13.975 33 15.925 33 18C33 20.05 32.6062 21.9875 31.8187 23.8125C31.0312 25.6375 29.9625 27.2312 28.6125 28.5938C27.2625 29.9563 25.675 31.0312 23.85 31.8187C22.025 32.6062 20.075 33 18 33Z" fill="#3C79F5"/>
</svg>
