<svg width="38" height="37" viewBox="0 0 38 37" fill="none" xmlns="http://www.w3.org/2000/svg">
<path d="M18.9044 33.6159C16.8028 33.6159 14.8277 33.2171 12.9793 32.4195C11.1309 31.6219 9.52304 30.5394 8.15571 29.1721C6.78839 27.8048 5.70593 26.1969 4.90832 24.3485C4.11072 22.5001 3.71191 20.5251 3.71191 18.4234C3.71191 16.3218 4.11072 14.3468 4.90832 12.4984C5.70593 10.6499 6.78839 9.04208 8.15571 7.67476C9.52304 6.30743 11.1309 5.22497 12.9793 4.42736C14.8277 3.62976 16.8028 3.23096 18.9044 3.23096C21.006 3.23096 22.981 3.62976 24.8295 4.42736C26.6779 5.22497 28.2857 6.30743 29.6531 7.67476C31.0204 9.04208 32.1028 10.6499 32.9005 12.4984C33.6981 14.3468 34.0969 16.3218 34.0969 18.4234C34.0969 20.5251 33.6981 22.5001 32.9005 24.3485C32.1028 26.1969 31.0204 27.8048 29.6531 29.1721C28.2857 30.5394 26.6779 31.6219 24.8295 32.4195C22.981 33.2171 21.006 33.6159 18.9044 33.6159ZM17.2712 31.2991V28.1846C16.385 28.1846 15.638 27.8554 15.0303 27.1971C14.4226 26.5387 14.1188 25.7665 14.1188 24.8802V23.2091L6.33262 15.4229C6.20601 15.9293 6.11739 16.4294 6.06675 16.9232C6.01611 17.4169 5.99079 17.917 5.99079 18.4234C5.99079 21.7151 7.06059 24.589 9.2002 27.0452C11.3398 29.5013 14.0301 30.9192 17.2712 31.2991ZM28.4377 27.1971C28.9947 26.5894 29.4821 25.9437 29.8999 25.26C30.3177 24.5764 30.6722 23.8611 30.9634 23.1141C31.2546 22.3671 31.4698 21.6012 31.6091 20.8162C31.7484 20.0313 31.818 19.2337 31.818 18.4234C31.818 15.7394 31.0837 13.3023 29.6151 11.1121C28.1465 8.9218 26.1841 7.32026 23.728 6.30743V6.99109C23.728 7.87732 23.4241 8.64961 22.8164 9.30795C22.2087 9.96629 21.4618 10.2955 20.5756 10.2955H17.2712V13.5998C17.2712 14.0303 17.1003 14.3848 16.7584 14.6633C16.4166 14.9418 16.0305 15.0811 15.6 15.0811H12.4476V18.4234H22.2467C22.6772 18.4234 23.0317 18.588 23.3102 18.9172C23.5887 19.2464 23.728 19.6262 23.728 20.0566V24.8802H25.3612C26.0955 24.8802 26.7412 25.0955 27.2982 25.5259C27.8553 25.9564 28.2351 26.5134 28.4377 27.1971Z" fill="#F5F4FA"/>
</svg>
