<svg width="42" height="42" viewBox="0 0 42 42" fill="none" xmlns="http://www.w3.org/2000/svg">
<g clip-path="url(#clip0_531_2281)">
<path d="M0.844238 31.5V29.1812C0.844238 28.0437 1.44184 27.125 2.63705 26.425C3.83227 25.725 5.36897 25.375 7.24715 25.375C7.6171 25.375 7.95859 25.3823 8.27162 25.3969C8.58465 25.4115 8.89768 25.4479 9.21071 25.5062C8.98306 26.0021 8.81231 26.5052 8.69848 27.0156C8.58465 27.526 8.52774 28.0729 8.52774 28.6562V31.5H0.844238ZM11.0889 31.5V28.6562C11.0889 26.7604 12.0351 25.2292 13.9275 24.0625C15.8199 22.8958 18.2886 22.3125 21.3336 22.3125C24.407 22.3125 26.8828 22.8958 28.761 24.0625C30.6391 25.2292 31.5782 26.7604 31.5782 28.6562V31.5H11.0889ZM34.1394 31.5V28.6562C34.1394 28.0729 34.0896 27.526 33.99 27.0156C33.8904 26.5052 33.7268 26.0021 33.4991 25.5062C33.8121 25.4479 34.1252 25.4115 34.4382 25.3969C34.7512 25.3823 35.0785 25.375 35.42 25.375C37.3551 25.375 38.906 25.725 40.0728 26.425C41.2395 27.125 41.8229 28.0437 41.8229 29.1812V31.5H34.1394ZM7.24715 24.0625C6.42189 24.0625 5.71757 23.7635 5.13419 23.1656C4.55081 22.5677 4.25913 21.8458 4.25913 21C4.25913 20.1542 4.55081 19.4323 5.13419 18.8344C5.71757 18.2365 6.42189 17.9375 7.24715 17.9375C8.07242 17.9375 8.77674 18.2365 9.36012 18.8344C9.94349 19.4323 10.2352 20.1542 10.2352 21C10.2352 21.8458 9.94349 22.5677 9.36012 23.1656C8.77674 23.7635 8.07242 24.0625 7.24715 24.0625ZM35.42 24.0625C34.5947 24.0625 33.8904 23.7635 33.307 23.1656C32.7236 22.5677 32.432 21.8458 32.432 21C32.432 20.1542 32.7236 19.4323 33.307 18.8344C33.8904 18.2365 34.5947 17.9375 35.42 17.9375C36.2452 17.9375 36.9496 18.2365 37.5329 18.8344C38.1163 19.4323 38.408 20.1542 38.408 21C38.408 21.8458 38.1163 22.5677 37.5329 23.1656C36.9496 23.7635 36.2452 24.0625 35.42 24.0625ZM21.3336 21C19.9107 21 18.7013 20.4896 17.7052 19.4688C16.7092 18.4479 16.2112 17.2083 16.2112 15.75C16.2112 14.2625 16.7092 13.0156 17.7052 12.0094C18.7013 11.0031 19.9107 10.5 21.3336 10.5C22.7849 10.5 24.0014 11.0031 24.9832 12.0094C25.965 13.0156 26.4559 14.2625 26.4559 15.75C26.4559 17.2083 25.965 18.4479 24.9832 19.4688C24.0014 20.4896 22.7849 21 21.3336 21Z" fill="#F5F4FA"/>
</g>
<defs>
<clipPath id="clip0_531_2281">
<rect width="40.9787" height="42" fill="white" transform="translate(0.844238)"/>
</clipPath>
</defs>
</svg>
