<svg width="27" height="27" viewBox="0 0 27 27" fill="none" xmlns="http://www.w3.org/2000/svg">
<path d="M17.6657 13.5L12.0792 7.91356L10.723 9.3021L14.9209 13.5L10.723 17.6979L12.0792 19.0865L17.6657 13.5ZM26.4167 13.5C26.4167 15.2653 26.0776 16.9337 25.3995 18.5052C24.7214 20.0768 23.7957 21.4492 22.6224 22.6224C21.4492 23.7957 20.0768 24.7214 18.5053 25.3995C16.9337 26.0776 15.2653 26.4167 13.5 26.4167C11.7132 26.4167 10.0341 26.0776 8.46254 25.3995C6.89101 24.7214 5.524 23.7957 4.3615 22.6224C3.199 21.4492 2.27869 20.0768 1.60056 18.5052C0.922436 16.9337 0.583374 15.2653 0.583373 13.5C0.583373 11.7132 0.922436 10.034 1.60056 8.46252C2.27869 6.89099 3.199 5.52398 4.3615 4.36148C5.524 3.19898 6.89101 2.27867 8.46254 1.60054C10.0341 0.922417 11.7132 0.583354 13.5 0.583354C15.2653 0.583354 16.9337 0.922416 18.5052 1.60054C20.0768 2.27867 21.4492 3.19898 22.6224 4.36148C23.7957 5.52398 24.7214 6.89099 25.3995 8.46252C26.0776 10.034 26.4167 11.7132 26.4167 13.5Z" fill="#2F37A4"/>
</svg>
