<svg width="19" height="19" viewBox="0 0 19 19" fill="none" xmlns="http://www.w3.org/2000/svg">
<path d="M15.7344 16.625C14.1247 16.625 12.5248 16.2292 10.9349 15.4375C9.34496 14.6458 7.91667 13.6167 6.65 12.35C5.38333 11.0833 4.35417 9.65503 3.5625 8.0651C2.77083 6.47517 2.375 4.87535 2.375 3.26562C2.375 3.01493 2.46076 2.80382 2.63229 2.63229C2.80382 2.46076 3.01493 2.375 3.26562 2.375H6.03646C6.22118 2.375 6.38281 2.43767 6.52135 2.56302C6.6599 2.68837 6.74896 2.8566 6.78854 3.06771L7.32292 5.56146C7.34931 5.74618 7.34601 5.91441 7.31302 6.06615C7.28003 6.21788 7.21076 6.34653 7.10521 6.45208L5.12604 8.45104C5.86493 9.67812 6.69288 10.7469 7.6099 11.6573C8.52691 12.5677 9.56597 13.3396 10.7271 13.9729L12.6073 12.0333C12.7392 11.8882 12.891 11.7859 13.0625 11.7266C13.234 11.6672 13.4056 11.6573 13.5771 11.6969L15.9323 12.2115C16.1302 12.251 16.2951 12.35 16.4271 12.5083C16.559 12.6667 16.625 12.8514 16.625 13.0625V15.7344C16.625 15.9851 16.5392 16.1962 16.3677 16.3677C16.1962 16.5392 15.9851 16.625 15.7344 16.625Z" fill="#FDA43B"/>
</svg>
