<svg width="21" height="21" viewBox="0 0 21 21" fill="none" xmlns="http://www.w3.org/2000/svg">
<circle cx="10.2812" cy="10.2812" r="10.2812" fill="#3C79F5"/>
<path d="M6.15039 15.7754C5.93008 15.7754 5.7373 15.6928 5.57207 15.5275C5.40684 15.3623 5.32422 15.1695 5.32422 14.9492V6.64619H6.15039V14.9492H12.6771V15.7754H6.15039ZM7.80273 14.123C7.58242 14.123 7.38965 14.0404 7.22441 13.8752C7.05918 13.71 6.97656 13.5172 6.97656 13.2969V5.58594C6.97656 5.36563 7.05918 5.17285 7.22441 5.00762C7.38965 4.84238 7.58242 4.75977 7.80273 4.75977H13.8613C14.0816 4.75977 14.2744 4.84238 14.4396 5.00762C14.6049 5.17285 14.6875 5.36563 14.6875 5.58594V13.2969C14.6875 13.5172 14.6049 13.71 14.4396 13.8752C14.2744 14.0404 14.0816 14.123 13.8613 14.123H7.80273ZM7.80273 13.2969H13.8613V5.58594H7.80273V13.2969Z" fill="white"/>
</svg>
