<svg width="18" height="17" viewBox="0 0 18 17" fill="none" xmlns="http://www.w3.org/2000/svg">
<path d="M4.73029 0.374919L13.973 0.37492L13.973 10.5083L8.47091 16.2083L7.81779 15.6937C7.67265 15.5881 7.57699 15.4694 7.53081 15.3374C7.48463 15.2055 7.46154 15.0537 7.46154 14.8822L7.46154 14.6843L8.35216 10.5083L1.97925 10.5083C1.67578 10.5083 1.40199 10.3862 1.15789 10.1421C0.913796 9.89801 0.791749 9.62422 0.791749 9.32075L0.791749 7.69783C0.791749 7.5527 0.808242 7.38447 0.841227 7.19315C0.874213 7.00183 0.923694 6.8336 0.989665 6.68846L3.2855 1.38429C3.40425 1.10721 3.59887 0.86971 3.86935 0.671793C4.13984 0.473877 4.42682 0.374919 4.73029 0.374919ZM15.1605 10.5083L15.1605 0.37492L17.4167 0.37492L17.4167 10.5083L15.1605 10.5083Z" fill="#3C79F5"/>
</svg>
