<svg width="15" height="23" viewBox="0 0 15 23" fill="none" xmlns="http://www.w3.org/2000/svg">
<path d="M10.5003 2.87549C10.5003 4.46123 9.15501 5.75049 7.50031 5.75049C5.8456 5.75049 4.50027 4.46123 4.50027 2.87549C4.50027 1.28975 5.8456 0.000488281 7.50031 0.000488281C9.15501 0.000488281 10.5003 1.28975 10.5003 2.87549ZM6.7503 17.2505V21.563C6.7503 22.3581 6.07998 23.0005 5.25028 23.0005C4.42058 23.0005 3.75026 22.3581 3.75026 21.563V12.929L2.77056 14.4204C2.32993 15.0942 1.4018 15.2919 0.703351 14.8696C0.00490497 14.4474 -0.210723 13.5624 0.229908 12.8931L2.10024 10.0495C3.26744 8.26611 5.30653 7.18799 7.50031 7.18799C9.69408 7.18799 11.7332 8.26611 12.9004 10.045L14.7707 12.8931C15.2113 13.5669 15.0004 14.4519 14.302 14.8741C13.6035 15.2964 12.6754 15.0942 12.2347 14.4249L11.2504 12.929V21.563C11.2504 22.3581 10.58 23.0005 9.75033 23.0005C8.92064 23.0005 8.25032 22.3581 8.25032 21.563V17.2505H6.7503Z" fill="white"/>
</svg>
