<svg width="18" height="18" viewBox="0 0 18 18" fill="none" xmlns="http://www.w3.org/2000/svg">
<path d="M9 8.9812C8.175 8.9812 7.5 8.7187 6.975 8.1937C6.45 7.6687 6.1875 6.9937 6.1875 6.1687C6.1875 5.3437 6.45 4.6687 6.975 4.1437C7.5 3.6187 8.175 3.3562 9 3.3562C9.825 3.3562 10.5 3.6187 11.025 4.1437C11.55 4.6687 11.8125 5.3437 11.8125 6.1687C11.8125 6.9937 11.55 7.6687 11.025 8.1937C10.5 8.7187 9.825 8.9812 9 8.9812ZM3 15V13.2374C3 12.7625 3.11875 12.3562 3.35625 12.0187C3.59375 11.6812 3.9 11.425 4.275 11.25C5.1125 10.875 5.91563 10.5937 6.68438 10.4062C7.45313 10.2187 8.225 10.125 9 10.125C9.775 10.125 10.5437 10.2218 11.3062 10.4156C12.0687 10.6093 12.8687 10.8875 13.7062 11.25C14.0938 11.425 14.4062 11.6812 14.6437 12.0187C14.8812 12.3562 15 12.7625 15 13.2374V15H3Z" fill="#FDA43B"/>
</svg>
