<svg width="18" height="19" viewBox="0 0 18 19" fill="none" xmlns="http://www.w3.org/2000/svg">
<path d="M12.1125 9.9124C11.525 9.3874 10.9656 8.8749 10.4344 8.3749C9.90313 7.8749 9.4375 7.3874 9.0375 6.9124C8.6375 6.4374 8.31875 5.97803 8.08125 5.53428C7.84375 5.09053 7.725 4.6624 7.725 4.2499C7.725 3.5999 7.94375 3.05615 8.38125 2.61865C8.81875 2.18115 9.3625 1.9624 10.0125 1.9624C10.3875 1.9624 10.7594 2.06553 11.1281 2.27178C11.4969 2.47803 11.825 2.75615 12.1125 3.10615C12.4 2.75615 12.7281 2.47803 13.0969 2.27178C13.4656 2.06553 13.8375 1.9624 14.2125 1.9624C14.8625 1.9624 15.4062 2.18115 15.8438 2.61865C16.2812 3.05615 16.5 3.5999 16.5 4.2499C16.5 4.6624 16.3812 5.09053 16.1437 5.53428C15.9062 5.97803 15.5875 6.4374 15.1875 6.9124C14.7875 7.3874 14.3219 7.8749 13.7906 8.3749C13.2594 8.8749 12.7 9.3874 12.1125 9.9124ZM10.6125 17.3374L4.78125 15.6687V9.3499H6.54375L11.325 11.1499C11.6625 11.2749 11.9469 11.478 12.1781 11.7593C12.4094 12.0405 12.525 12.4437 12.525 12.9687H11.325C10.7125 12.9687 10.2656 12.9499 9.98438 12.9124C9.70312 12.8749 9.40625 12.8062 9.09375 12.7062L7.725 12.2562L7.5375 12.7812L8.94375 13.2687C9.23125 13.3687 9.55312 13.4374 9.90937 13.4749C10.2656 13.5124 10.6313 13.5312 11.0063 13.5312H14.6625C15.375 13.5312 15.8594 13.6687 16.1156 13.9437C16.3719 14.2187 16.5 14.5874 16.5 15.0499V15.5374L10.6125 17.3374ZM0.75 16.7374V9.3499H3.6375V16.7374H0.75Z" fill="#FDA43B"/>
</svg>
