<svg width="35" height="35" viewBox="0 0 35 35" fill="none" xmlns="http://www.w3.org/2000/svg">
<path d="M2.91675 24.7917V4.44792C2.91675 4.10764 3.07473 3.76736 3.39071 3.42708C3.70668 3.0868 4.0348 2.91667 4.37508 2.91667H23.297C23.6615 2.91667 24.0018 3.08073 24.3178 3.40885C24.6338 3.73698 24.7917 4.08333 24.7917 4.44792V17.4271C24.7917 17.7674 24.6338 18.1076 24.3178 18.4479C24.0018 18.7882 23.6615 18.9583 23.297 18.9583H8.75008L2.91675 24.7917ZM10.2449 26.25C9.9046 26.25 9.57039 26.0799 9.24227 25.7396C8.91414 25.3993 8.75008 25.059 8.75008 24.7188V21.1458H26.9792V8.75H30.6251C30.9654 8.75 31.2935 8.92014 31.6095 9.26042C31.9254 9.60069 32.0834 9.95312 32.0834 10.3177V32.0469L26.2865 26.25H10.2449ZM22.6042 5.10417H5.10425V19.5052L7.83862 16.7708H22.6042V5.10417Z" fill="white"/>
</svg>
