<svg width="21" height="21" viewBox="0 0 21 21" fill="none" xmlns="http://www.w3.org/2000/svg">
<circle cx="10.7188" cy="10.2812" r="10.2812" fill="#3C79F5"/>
<path d="M15.0562 15.2383C13.9362 15.2383 12.8232 14.9629 11.717 14.4121C10.6109 13.8613 9.61719 13.1453 8.73594 12.2641C7.85469 11.3828 7.13867 10.3891 6.58789 9.28296C6.03711 8.17681 5.76172 7.06377 5.76172 5.94385C5.76172 5.76943 5.82139 5.62256 5.94072 5.50322C6.06006 5.38389 6.20693 5.32422 6.38135 5.32422H8.30908C8.4376 5.32422 8.55005 5.36782 8.64644 5.45503C8.74282 5.54224 8.80479 5.65928 8.83232 5.80615L9.2041 7.54111C9.22246 7.66963 9.22017 7.78667 9.19722 7.89224C9.17427 7.9978 9.12607 8.0873 9.05264 8.16074L7.67568 9.55147C8.18975 10.4052 8.76577 11.1487 9.40376 11.7821C10.0417 12.4155 10.7646 12.9525 11.5725 13.3932L12.8806 12.0438C12.9724 11.9428 13.0779 11.8716 13.1973 11.8303C13.3166 11.789 13.4359 11.7821 13.5553 11.8097L15.1938 12.1677C15.3315 12.1952 15.4463 12.2641 15.5381 12.3742C15.6299 12.4844 15.6758 12.6129 15.6758 12.7598V14.6187C15.6758 14.7931 15.6161 14.9399 15.4968 15.0593C15.3774 15.1786 15.2306 15.2383 15.0562 15.2383Z" fill="white"/>
</svg>
