<svg width="15" height="16" viewBox="0 0 15 16" fill="none" xmlns="http://www.w3.org/2000/svg">
<path d="M6.39375 11.4125L11.7 6.10625L10.8375 5.2625L6.39375 9.70625L4.14375 7.45625L3.3 8.3L6.39375 11.4125ZM7.5 15.5C6.475 15.5 5.50625 15.3031 4.59375 14.9094C3.68125 14.5156 2.88438 13.9781 2.20312 13.2969C1.52187 12.6156 0.984375 11.8188 0.590625 10.9062C0.196875 9.99375 0 9.025 0 8C0 6.9625 0.196875 5.9875 0.590625 5.075C0.984375 4.1625 1.52187 3.36875 2.20312 2.69375C2.88438 2.01875 3.68125 1.48437 4.59375 1.09062C5.50625 0.696875 6.475 0.5 7.5 0.5C8.5375 0.5 9.5125 0.696875 10.425 1.09062C11.3375 1.48437 12.1313 2.01875 12.8063 2.69375C13.4813 3.36875 14.0156 4.1625 14.4094 5.075C14.8031 5.9875 15 6.9625 15 8C15 9.025 14.8031 9.99375 14.4094 10.9062C14.0156 11.8188 13.4813 12.6156 12.8063 13.2969C12.1313 13.9781 11.3375 14.5156 10.425 14.9094C9.5125 15.3031 8.5375 15.5 7.5 15.5Z" fill="#2F37A4"/>
</svg>
