<svg width="19" height="19" viewBox="0 0 19 19" fill="none" xmlns="http://www.w3.org/2000/svg">
<g clip-path="url(#clip0_591_1993)">
<path d="M5.00762 10.1194H7.09033V18.6935C7.09033 18.8628 7.2275 19 7.39678 19H10.9281C11.0974 19 11.2345 18.8628 11.2345 18.6935V10.1598H13.6288C13.7845 10.1598 13.9154 10.043 13.9332 9.88834L14.2968 6.73176C14.3068 6.64491 14.2793 6.55794 14.2212 6.49279C14.163 6.42758 14.0798 6.39025 13.9925 6.39025H11.2347V4.41155C11.2347 3.81508 11.5558 3.51261 12.1893 3.51261C12.2796 3.51261 13.9925 3.51261 13.9925 3.51261C14.1618 3.51261 14.2989 3.37538 14.2989 3.20616V0.308719C14.2989 0.139435 14.1618 0.00226774 13.9925 0.00226774H11.5075C11.4899 0.00140968 11.451 0 11.3936 0C10.9625 0 9.46374 0.0846419 8.27985 1.17377C6.96812 2.3807 7.15046 3.8258 7.19403 4.07636V6.39019H5.00762C4.83834 6.39019 4.70117 6.52736 4.70117 6.69664V9.81289C4.70117 9.98217 4.83834 10.1194 5.00762 10.1194Z" fill="#3C79F5"/>
</g>
<defs>
<clipPath id="clip0_591_1993">
<rect width="19" height="19" fill="white"/>
</clipPath>
</defs>
</svg>
