<svg width="19" height="19" viewBox="0 0 19 19" fill="none" xmlns="http://www.w3.org/2000/svg">
<path d="M14.2697 16.6251H5.027V6.49175L10.5291 0.791748L11.1822 1.30633C11.3273 1.41189 11.423 1.53064 11.4692 1.66258C11.5154 1.79453 11.5385 1.94626 11.5385 2.11779V2.31571L10.6478 6.49175H17.0208C17.3242 6.49175 17.598 6.6138 17.8421 6.85789C18.0862 7.10199 18.2083 7.37578 18.2083 7.67925V9.30216C18.2083 9.4473 18.1918 9.61553 18.1588 9.80685C18.1258 9.99817 18.0763 10.1664 18.0103 10.3115L15.7145 15.6157C15.5958 15.8928 15.4011 16.1303 15.1306 16.3282C14.8602 16.5261 14.5732 16.6251 14.2697 16.6251ZM3.8395 6.49175V16.6251H1.58325V6.49175H3.8395Z" fill="#3C79F5"/>
</svg>
