<svg width="41" height="40" viewBox="0 0 41 40" fill="none" xmlns="http://www.w3.org/2000/svg">
<path d="M14.8896 37.5L11.7246 32.0833L5.43619 30.7917L6.14416 24.6667L2.14624 20L6.14416 15.375L5.43619 9.25L11.7246 7.95833L14.8896 2.5L20.47 5.08333L26.0505 2.5L29.2571 7.95833L35.5039 9.25L34.7959 15.375L38.7938 20L34.7959 24.6667L35.5039 30.7917L29.2571 32.0833L26.0505 37.5L20.47 34.9167L14.8896 37.5ZM16.014 34.2083L20.47 32.3333L25.051 34.2083L27.8412 30.0417L32.7137 28.7917L32.2139 23.8333L35.5872 20L32.2139 16.0833L32.7137 11.125L27.8412 9.95833L24.9677 5.79167L20.47 7.66667L15.8891 5.79167L13.0989 9.95833L8.22641 11.125L8.72615 16.0833L5.3529 20L8.72615 23.8333L8.22641 28.875L13.0989 30.0417L16.014 34.2083ZM18.6793 25.5417L28.1327 16.1667L26.2587 14.4583L18.6793 21.9583L14.723 17.8333L12.8074 19.7083L18.6793 25.5417Z" fill="#F5F4FA"/>
</svg>
