<svg width="76" height="17" viewBox="0 0 76 17" fill="none" xmlns="http://www.w3.org/2000/svg">
<g clip-path="url(#clip0_531_2669)">
<path fill-rule="evenodd" clip-rule="evenodd" d="M22.946 1.28464C23.3229 1.6567 23.5944 2.11975 23.7337 2.62767L23.7335 2.62782C24.5351 5.81327 24.3498 10.8444 23.7491 14.1529C23.6099 14.6608 23.3383 15.1239 22.9615 15.4959C22.5846 15.868 22.1156 16.1361 21.6012 16.2735C19.7178 16.7806 12.1379 16.7806 12.1379 16.7806C12.1379 16.7806 4.5579 16.7806 2.67453 16.2735C2.16009 16.1361 1.6911 15.868 1.31425 15.4959C0.937402 15.1239 0.665852 14.6608 0.52664 14.1529C-0.279673 10.9813 -0.0586491 5.94707 0.511054 2.64306C0.650266 2.13516 0.921816 1.67212 1.29866 1.30006C1.67551 0.928 2.14451 0.6599 2.65894 0.522457C4.54217 0.0153879 12.1223 0 12.1223 0C12.1223 0 19.7021 0 21.5856 0.507069C22.1001 0.64449 22.5691 0.91258 22.946 1.28464ZM15.9977 8.39037L9.70959 11.9862V4.79443L15.9977 8.39037Z" fill="white"/>
<path d="M72.918 4.87147C73.7428 4.87147 74.3654 5.02505 74.8012 5.31698C75.237 5.60906 75.5484 6.06997 75.7351 6.70014C75.9219 7.33016 75.9997 8.19057 75.9997 9.29704V11.0951H71.9996V11.6482L72.0619 13.1695C72.1085 13.5076 72.1865 13.7535 72.3108 13.9071C72.4355 14.0608 72.6377 14.1376 72.9024 14.1376C73.2604 14.1376 73.5095 13.9994 73.6339 13.7229C73.774 13.4462 73.8362 12.9852 73.8518 12.3551L75.9219 12.4781C75.9375 12.5703 75.9375 12.6932 75.9375 12.8468C75.9375 13.8149 75.6728 14.5373 75.128 15.0136C74.5833 15.4899 73.8362 15.7358 72.8556 15.7358C71.6727 15.7358 70.8478 15.3671 70.3809 14.6449C69.914 13.9225 69.6649 12.7853 69.6649 11.2641V9.4046C69.7178 6.79232 70.1831 4.87909 72.918 4.87147ZM44.1389 5.07122V12.77C44.1389 13.2311 44.1855 13.5692 44.2945 13.7689C44.5155 14.1961 45.0883 14.0869 45.3996 13.8765C45.5793 13.7566 45.7241 13.5924 45.8198 13.4002V5.07107H48.2012V15.5667H46.3334L46.1311 14.2758H46.0845C45.5709 15.244 44.808 15.7356 43.7964 15.7356C42.2393 15.7318 41.8583 14.6242 41.7676 13.4993L41.7617 13.42C41.7505 13.2496 41.7439 13.0789 41.7419 12.9082V5.07122H44.1387H44.1389ZM56.4194 5.07122V12.77C56.4194 13.2311 56.466 13.5692 56.575 13.7689C56.7962 14.1961 57.3688 14.0869 57.6801 13.8765C57.8598 13.7566 58.0047 13.5924 58.1003 13.4002V5.07107H60.4817V15.5667H58.6139L58.4116 14.2758H58.365C57.8514 15.244 57.0886 15.7356 56.077 15.7356C54.5199 15.7318 54.1388 14.6242 54.0481 13.4993L54.0422 13.42C54.031 13.2496 54.0244 13.0789 54.0225 12.9082V5.07122H56.4194ZM37.2281 4.87147C38.0063 4.87147 38.6445 5.02505 39.1115 5.34776C39.5783 5.67047 39.9363 6.16229 40.1542 6.83834C40.3721 7.51453 40.4811 8.4211 40.4811 9.54295V11.0642C40.4811 12.186 40.3721 13.0773 40.1542 13.7534C39.9363 14.4297 39.5939 14.9214 39.1115 15.2441C38.629 15.5514 37.9752 15.7204 37.1659 15.7204C36.3253 15.7358 35.6716 15.5668 35.1891 15.2595C34.7067 14.9368 34.3641 14.445 34.162 13.7689C33.9595 13.0927 33.8661 12.2014 33.8661 11.0797V9.55819C33.8661 8.43634 33.9751 7.51438 34.2086 6.83819C34.4421 6.14676 34.7999 5.65493 35.2981 5.34776C35.7961 5.04029 36.4342 4.87132 37.2281 4.87132V4.87147ZM64.2173 0.660889V6.19292H64.2329C64.4508 5.79342 64.7309 5.47072 65.1201 5.2248C65.4835 4.98354 65.9117 4.85512 66.3496 4.85608C66.9255 4.85608 67.3613 5.00966 67.6882 5.3016C68.0151 5.60906 68.2486 6.08535 68.3885 6.74616C68.5244 7.38629 68.6015 8.27161 68.6063 9.38804L68.6064 9.49693V11.1565C68.6064 12.7085 68.4041 13.8611 68.0305 14.5987C67.6416 15.3363 67.0501 15.7052 66.2406 15.7052C65.7894 15.7052 65.3846 15.5976 65.0111 15.3978C64.6808 15.2078 64.4069 14.9353 64.217 14.6076L64.1861 14.5525H64.1395L63.8904 15.5514H61.9137V0.661035H64.2173V0.660889ZM54.6916 1.19873V3.10405H52.3258V15.5667H49.9912V3.1042H47.6098V1.19888H54.6918L54.6916 1.19873ZM29.0254 1.19873L29.0269 1.2046C29.0496 1.3044 29.3643 2.68565 29.7105 4.29493L29.7378 4.42243L29.779 4.61515L29.8067 4.74455L29.8205 4.80948L29.8481 4.93961L29.8619 5.00483L29.8893 5.13541L29.9294 5.32636C30.1632 6.44074 30.3863 7.55835 30.5197 8.35969H30.5821C30.7099 7.64085 30.8956 6.72095 31.0936 5.7817L31.1456 5.53637C31.1717 5.41356 31.1978 5.29075 31.2242 5.16823L31.2649 4.97816C31.5338 3.73347 31.8107 2.49049 32.0957 1.24929L32.1002 1.22951L32.1073 1.19873H34.4887L31.7337 10.8953V15.5514H29.3835V10.9106H29.3679L26.644 1.19859H29.0254V1.19873ZM37.1813 6.50024C36.8545 6.50024 36.6366 6.66936 36.4966 7.02285C36.3565 7.37618 36.2943 7.91403 36.2943 8.66716V11.9402C36.2943 12.7086 36.3565 13.2771 36.481 13.6153C36.6055 13.9533 36.839 14.1224 37.1813 14.1224C37.5082 14.1224 37.7417 13.9533 37.8818 13.6153C38.0219 13.2771 38.0841 12.7086 38.0841 11.9402V8.66701C38.0841 7.91403 38.0218 7.36079 37.8818 7.0227C37.7417 6.66936 37.5082 6.50024 37.1813 6.50024ZM64.6375 6.80771C64.4478 6.98064 64.3129 7.19387 64.2326 7.46045L64.2173 7.51453V13.4768C64.4103 13.7995 64.6843 14.0147 65.1667 14.0301C65.4158 14.0301 65.618 13.9379 65.7738 13.7535C65.9294 13.5692 66.0383 13.2617 66.1005 12.8314C66.1603 12.4184 66.1915 11.8495 66.1939 11.125V9.66591C66.1939 8.83613 66.1627 8.2061 66.1161 7.76044C66.0538 7.31478 65.9761 6.99207 65.836 6.80771C65.5651 6.42345 64.98 6.42814 64.6375 6.80771ZM72.8713 6.45423C72.6067 6.46961 72.4198 6.54641 72.3108 6.68475C72.1865 6.83834 72.1085 7.06886 72.0619 7.40696C72.0161 7.73816 72.0003 8.89592 71.9996 8.94223V9.69668H73.7428V9.03134V9.04409C73.7418 9.27666 73.7369 8.90911 73.7262 8.45788L73.7247 8.39721C73.7149 8.00064 73.7007 7.55849 73.6806 7.40696C73.6339 7.05348 73.5559 6.80756 73.4315 6.66936C73.307 6.53102 73.1203 6.45423 72.8712 6.45423H72.8713Z" fill="white"/>
</g>
<defs>
<clipPath id="clip0_531_2669">
<rect width="76" height="17" fill="white"/>
</clipPath>
</defs>
</svg>
